<?xml version="1.0" ?>
<svg xmlns="http://www.w3.org/2000/svg" xmlns:ev="http://www.w3.org/2001/xml-events" xmlns:xlink="http://www.w3.org/1999/xlink" baseProfile="full" height="200" version="1.1" viewBox="0 0 200 200" width="200">
	<defs/>
	<path d="M 78.49465000000001,46.6635 C 64.16120000000001,54.93865000000001 51.23910000000001,72.36925000000001 45.754,90.8271 C 40.268499999999996,109.28495000000001 43.3005,125.13515000000001 53.435950000000005,130.98675 L 96.44670500000001,155.81900000000002 C 110.28620000000001,163.80900000000003 132.7245,150.8545 146.56405,126.88375000000002 C 160.4035,102.91301000000001 160.4035,77.0035 146.56405,69.01325 L 103.553295,44.181 C 96.90732500000001,40.34400000000001 87.89345,41.237 78.49465000000001,46.6635" fill="none" fill-rule="evenodd" stroke="#000000" stroke-linecap="round" stroke-linejoin="bevel" stroke-opacity="1" stroke-width="0.75"/>
	<path d="M 121.50535,71.49549999999999 C 107.17190000000001,79.77095 94.24985000000001,97.20149500000001 88.76465000000002,115.65935 C 83.2795,134.1172 86.31145000000001,149.9674 96.44670500000001,155.81900000000002 M 121.50535,71.49549999999999 C 130.9042,66.0691 139.91805,65.1762 146.56405,69.01325" fill="none" fill-rule="evenodd" stroke="#000000" stroke-linecap="round" stroke-linejoin="bevel" stroke-opacity="1" stroke-width="0.75"/>
</svg>
